<svg xmlns="http://www.w3.org/2000/svg" viewBox="0 0 136 26" width="136" height="26" style="" focusable="false" aria-hidden="true">
    
    <path id="logo" d="M134.05 9v.01h.03l.66 3.02h-.66l-.01-.02h-.02a3.4 3.4 0 00-1.93-1.84 7.29 7.29 0 00-2.48-.35c-1.7 0-2.15.33-2.15 1.19v4.6c0 .27.06.47.18.61.12.13.3.2.54.2h2c.73 0 1.5-.74 1.84-2.37h.74v.02h.03v5.3h-.74v-.02h-.03c-.18-.96-.45-1.54-.88-1.85a1.63 1.63 0 00-.94-.25h-1.89c-.48 0-.85.4-.85 1.18v4.53c0 .36.14.66.34.87.21.2.5.33.78.33h1.78c2.4 0 3.8-.74 4.84-3.18h.74V21h.03l-.66 4h-13.32v-.03H122v-.81c2.3-.08 2.73-.41 2.73-1.14V11.36c0-.64-.08-1.01-.46-1.22-.38-.21-1.06-.27-2.25-.32H122V9h12.05zM104.9 9c2.66.01 7.15.28 7.15 4.16 0 2.04-1.55 3.43-3.17 4.08l3.93 5.8c.6.9 1.05 1.23 2.18 1.3V25h-3.01c-.46 0-.76-.16-1.14-.73l-4.37-6.7a19 19 0 01-1.5-.08v5.39c0 .9.37 1.22 1.95 1.3V25H100v-.82c1.81-.08 2.19-.49 2.19-1.38V11.29c0-1.15-.27-1.4-2.19-1.47V9zM84.24 9v.8c-.75.05-1.72.5-1.72 1.42 0 .69.25 1.42.68 2.47l3.2 7.92 2.62-8.45c.21-.65.46-1.33.46-1.9 0-.8-.5-1.29-1.8-1.45V9H93v.8c-1.08.09-1.76.53-2.3 2.03l-3.94 11.4c-.43 1.24-.69 1.77-1.19 1.77s-.68-.57-1.18-1.78l-4.45-11.31c-.5-1.3-1-2.02-1.94-2.1V9h6.24zM59.96 9v.8c-2.54.16-2.97.48-2.97 2v7.48c0 3.32 1.27 4.52 4.34 4.52 2.68 0 4.7-1.4 4.7-4.92v-6.12c0-2.44-.65-2.8-2.75-2.96V9H69v.8c-1.55.16-2.1 1-2.1 2.72v6.68c0 3.88-2.5 5.8-6.37 5.8-3.9 0-6.22-1.6-6.22-5.08V12.4c0-1.96-.36-2.36-2.31-2.6V9h7.96zM35.5 9c4.37 0 7.5 3.12 7.5 8s-3.13 8-7.5 8-7.5-3.12-7.5-8 3.13-8 7.5-8zM10.24 0v.78c-3.1 0-3.54.54-3.54 3.5v16.13c0 2.8.43 3.35 2.82 3.35h2.35c3.01 0 6.2-.94 8.3-5.07H21L19.84 25l-2.97-.23c-.98-.04-1.95-.08-2.97-.08H0v-.78c3.15 0 3.58-.54 3.58-3.5V4.28c0-2.96-.43-3.5-3-3.5V0h9.66zM35.5 9.8c-3.71 0-4.8 3.72-4.8 7.2s1.09 7.2 4.8 7.2 4.8-3.72 4.8-7.2-1.09-7.2-4.8-7.2zm70.98.01c-1.05 0-1.5.5-1.5 1.4v5.46c.41.17.82.25 1.24.25 2.15 0 3.2-1.3 3.2-3.6 0-2.12-.87-3.5-2.94-3.5z" fill="white">
    </path>
</svg>

