<svg xmlns="http://www.w3.org/2000/svg" viewBox="0 0 16 16" width="1em" height="1em" focusable="false" aria-hidden="true" class="SvgRWrapper">
    <path d="M9.13.5a.9.9 0 0 1 1.28 0l1.17 1.18c.2.2.3.5.25.79a1.48 1.48 0 0 0 1.7 1.7c.3-.04.59.05.79.25l1.17 1.17a.9.9 0 0 1 0 1.28L6.87 15.5a.9.9 0 0 1-1.28 0L.51 10.41a.9.9 0 0 1 0-1.28zm.64.78L1.28 9.77l4.95 4.95 8.49-8.49-1.1-1.1c-.74.15-1.52-.1-2.08-.67s-.82-1.34-.7-2.14L9.77 1.28zm.53 5.13c.1-.1.25-.1.35 0l.35.35c.1.1.1.26 0 .36l-4.59 4.6a.27.27 0 0 1-.36 0l-.35-.36a.25.25 0 0 1 0-.36l4.6-4.59zm-2.24-.59c.1-.1.26-.1.35 0l.36.35c.1.1.1.26 0 .36L5 10.3c-.1.1-.26.1-.36 0l-.35-.35a.25.25 0 0 1 0-.36l3.77-3.77z">
    </path>
</svg>